:SAMPLES-PER-SECOND 30
:FULLY-SPECIFIED
:DEGREES
109
root  25.7613 35.3504 -11.349 -141.214 -77.5776 138.528
RightUpLeg  -31.1894 -7.82062 -16.6349
RightLeg  87.1866 0.126601 -5.20768
RightFoot  2.16606 -1.09126 9.39845
RightToes  0.000482159 0.542163 -0.142577
Spine  41.0995 -1.70192 13.1825
Spine1  1.60014 1.71485 8.70449
HEad  -53.4465 40.8434 -39.0825
LeftShoulder1  11.4715 -15.5378 -52.5527
LeftArm  -3.27152 10.2013 -28.1427
LeftForeArm  58.9212 -65.6084 -18.7092
LeftHand  -0.25398 0.0180481 5.50724
RightShoulder  5.03484 9.7606 32.0157
RightArm  -11.1212 -0.923418 29.241
RightForeArm  49.9808 77.2233 52.8342
RightHand  -2.17566 4.48338 -25.5341
LeftUpLeg  -29.1746 9.36985 -22.1246
LeftLeg  44.7058 10.7258 11.559
LeftFoot  -19.5209 0.616093 6.96224
LeftToes  1.06246e-005 4.65855e-005 -8.18502e-006
110
root  24.6002 35.5786 -12.3933 -133.315 -79.3382 130.085
RightUpLeg  -38.7448 -8.20715 -18.2551
RightLeg  80.9241 -1.19989 -11.5224
RightFoot  1.07038 -0.743751 6.94617
RightToes  0.000482159 0.542163 -0.142577
Spine  44.0075 -3.38402 13.4536
Spine1  1.01892 0.173287 10.0401
HEad  -56.4228 42.5618 -42.4123
LeftShoulder1  11.3537 -15.5138 -52.0907
LeftArm  -1.82563 6.47805 -28.9697
LeftForeArm  66.6564 -70.7757 -24.5158
LeftHand  -0.25398 0.0180481 5.50724
RightShoulder  4.9295 9.58524 31.7149
RightArm  -15.1001 -2.7441 24.4146
RightForeArm  51.5662 77.7679 57.7866
RightHand  -2.67983 5.89175 -27.4784
LeftUpLeg  -26.397 9.11328 -20.3318
LeftLeg  45.9137 9.90273 11.1841
LeftFoot  -20.8416 0.607897 5.77536
LeftToes  1.06246e-005 4.65855e-005 -8.18502e-006
111
root  23.2667 35.7786 -13.3617 -126.048 -80.8123 123.124
RightUpLeg  -43.4667 -9.1005 -19.5809
RightLeg  67.7204 -4.05249 -11.7696
RightFoot  1.74061 -0.644118 5.7034
RightToes  0.000482159 0.542163 -0.142577
Spine  45.287 -5.26186 15.5694
Spine1  0.54212 -0.559684 9.52085
HEad  -56.6503 44.1646 -43.9206
LeftShoulder1  11.1594 -15.4307 -51.4392
LeftArm  -0.781623 4.79523 -29.7238
LeftForeArm  73.9748 -74.7753 -32.0421
LeftHand  -0.25398 0.0180481 5.50724
RightShoulder  4.53818 8.91117 30.5912
RightArm  -18.1739 -5.22537 20.9358
RightForeArm  45.8043 77.2754 55.7516
RightHand  -2.67697 5.64292 -28.0055
LeftUpLeg  -24.3961 8.73823 -18.3997
LeftLeg  46.9921 9.80694 11.4912
LeftFoot  -22.5952 0.735654 6.06724
LeftToes  1.06246e-005 4.65855e-005 -8.18502e-006
112
root  21.6838 35.8789 -14.3265 -120.447 -81.1793 118.72
RightUpLeg  -45.5461 -10.5669 -20.8057
RightLeg  49.5022 -5.61509 -7.50245
RightFoot  1.08599 -0.730878 6.81059
RightToes  0.000482159 0.542163 -0.142577
Spine  45.1127 -6.69901 18.2487
Spine1  0.146573 -0.454432 7.60896
HEad  -55.0361 45.2063 -44.6965
LeftShoulder1  11.0911 -15.2972 -51.4865
LeftArm  -0.765095 5.14052 -29.9445
LeftForeArm  74.0594 -75.6973 -35.1929
LeftHand  -0.25398 0.0180481 5.50724
RightShoulder  4.11793 8.2493 29.0621
RightArm  -20.0566 -8.57405 18.3859
RightForeArm  36.3165 76.108 50.1632
RightHand  -2.50502 4.93326 -27.9926
LeftUpLeg  -23.0211 8.99296 -16.9054
LeftLeg  47.6418 8.61986 10.3979
LeftFoot  -24.7043 0.742961 5.13965
LeftToes  1.06246e-005 4.65855e-005 -8.18502e-006
113
root  19.8917 35.6556 -15.5442 -110.867 -80.4712 109.702
RightUpLeg  -43.8945 -12.3 -22.6086
RightLeg  30.7718 -4.983 -3.37609
RightFoot  -0.731897 -0.761082 8.1202
RightToes  0.000482159 0.542163 -0.142577
Spine  44.6739 -6.92576 18.711
Spine1  -0.0814234 -0.235065 6.74508
HEad  -52.9827 45.4917 -44.5219
LeftShoulder1  11.1941 -15.2017 -52.2114
LeftArm  -1.58256 6.90246 -29.1627
LeftForeArm  67.0436 -73.8405 -31.031
LeftHand  -0.25398 0.0180481 5.50724
RightShoulder  4.01146 8.22228 28.2096
RightArm  -20.7265 -12.4057 15.3657
RightForeArm  27.0167 74.5973 44.432
RightHand  -2.56642 5.05471 -28.3254
LeftUpLeg  -22.2427 10.7732 -15.9721
LeftLeg  51.3627 6.74147 9.41437
LeftFoot  -25.7936 0.351638 1.45178
LeftToes  1.06246e-005 4.65855e-005 -8.18502e-006
114
root  18.1538 35.0875 -17.0398 -93.3381 -79.7781 91.0467
RightUpLeg  -39.5233 -12.7056 -25.3151
RightLeg  19.4244 -4.9396 -2.12954
RightFoot  0.65513 -0.868656 8.30638
RightToes  0.000482159 0.542163 -0.142577
Spine  44.7302 -6.42146 17.6776
Spine1  -0.234829 -0.361155 8.13856
HEad  -50.5354 44.6859 -41.8932
LeftShoulder1  11.3083 -15.2604 -52.5701
LeftArm  -2.03775 9.01127 -27.5373
LeftForeArm  59.5458 -69.9764 -24.223
LeftHand  -0.25398 0.0180481 5.50724
RightShoulder  4.11003 8.50381 28.2269
RightArm  -20.878 -16.7334 12.4134
RightForeArm  20.6205 73.1561 39.972
RightHand  -2.79851 5.78299 -28.8642
LeftUpLeg  -23.1953 13.2425 -14.445
LeftLeg  60.8165 5.97076 12.3
LeftFoot  -22.2211 0.020017 -1.13031
LeftToes  1.06246e-005 4.65855e-005 -8.18502e-006
115
root  16.7202 34.1791 -18.5245 -73.3476 -79.9271 68.8968
RightUpLeg  -37.1431 -11.4974 -26.7158
RightLeg  21.0884 -4.94018 -2.25386
RightFoot  6.97077 -1.55899 9.7921
RightToes  0.000482159 0.542163 -0.142577
Spine  45.572 -6.35082 18.7555
Spine1  -0.732852 -0.199213 9.61847
HEad  -47.9787 42.5511 -37.0864
LeftShoulder1  11.29 -15.4825 -51.8901
LeftArm  -2.18757 11.1725 -25.5529
LeftForeArm  54.7443 -65.3927 -18.8423
LeftHand  -0.25398 0.0180481 5.50724
RightShoulder  4.11221 8.4218 28.4886
RightArm  -21.3054 -21.2559 11.1564
RightForeArm  16.871 72.0459 37.0613
RightHand  -2.94329 6.24442 -29.1463
LeftUpLeg  -27.7589 14.662 -11.5121
LeftLeg  73.7998 4.45142 17.8853
LeftFoot  -12.6951 0.0455425 1.94847
LeftToes  1.06246e-005 4.65855e-005 -8.18502e-006
116
root  15.4399 32.88 -19.8498 -58.1952 -81.1664 51.5594
RightUpLeg  -39.7102 -12.0761 -24.2329
RightLeg  32.1435 -0.984462 -0.852406
RightFoot  13.571 -2.61398 12.3078
RightToes  0.000482159 0.542163 -0.142577
Spine  47.0705 -7.04901 21.765
Spine1  -1.59271 0.817951 8.5086
HEad  -47.436 39.9345 -33.1559
LeftShoulder1  11.2161 -15.7211 -50.9279
LeftArm  -4.34848 13.785 -23.6005
LeftForeArm  52.6084 -61.9408 -15.9552
LeftHand  -0.25398 0.0180481 5.50724
RightShoulder  4.06951 8.21122 28.749
RightArm  -22.1459 -23.6104 11.2326
RightForeArm  12.617 70.7664 34.3227
RightHand  -2.99533 6.42671 -29.2026
LeftUpLeg  -34.9108 15.496 -8.47287
LeftLeg  85.2314 0.748521 17.9534
LeftFoot  -4.87397 -0.392117 8.03421
LeftToes  1.06246e-005 4.65855e-005 -8.18502e-006
117
root  14.2777 31.9599 -20.9572 -54.7319 -82.9037 47.0801
RightUpLeg  -43.9819 -13.1749 -20.3735
RightLeg  42.4199 1.94087 1.5229
RightFoot  14.5674 -2.45465 11.0161
RightToes  0.000482159 0.542163 -0.142577
Spine  49.4006 -7.54275 23.3007
Spine1  -1.6249 1.96627 6.57986
HEad  -50.3985 38.4903 -32.5745
LeftShoulder1  11.2734 -15.8316 -50.8959
LeftArm  -9.47433 16.3877 -22.3822
LeftForeArm  50.9279 -59.8706 -14.6296
LeftHand  -0.25398 0.0180481 5.50724
RightShoulder  4.19392 8.46834 29.0485
RightArm  -23.2365 -21.0005 10.6962
RightForeArm  7.26742 68.3474 29.9493
RightHand  -3.10096 6.83371 -29.2318
LeftUpLeg  -42.1464 16.287 -7.9045
LeftLeg  90.5247 -0.874706 12.4722
LeftFoot  -4.17767 -0.576002 9.47702
LeftToes  1.06246e-005 4.65855e-005 -8.18502e-006
118
root  13.4197 31.7992 -21.8031 -60.1693 -84.2731 53.0357
RightUpLeg  -47.4296 -13.1178 -17.3238
RightLeg  48.6334 1.6987 1.6898
RightFoot  10.4354 -1.27269 6.96069
RightToes  0.000482159 0.542163 -0.142577
Spine  51.9093 -7.24859 22.742
Spine1  -1.30682 2.51814 6.8089
HEad  -55.5169 38.8375 -35.0333
LeftShoulder1  11.472 -15.898 -51.6027
LeftArm  -14.4627 17.364 -22.7484
LeftForeArm  46.4012 -56.7435 -13.1281
LeftHand  -0.25398 0.0180481 5.50724
RightShoulder  4.41645 9.05633 29.1852
RightArm  -24.9935 -14.121 9.03686
RightForeArm  4.68035 64.8227 24.7197
RightHand  -3.22611 7.39748 -29.0872
LeftUpLeg  -48.5128 15.3132 -9.6391
LeftLeg  87.7038 -0.223247 8.40936
LeftFoot  -7.88261 -0.111849 4.84851
LeftToes  1.06246e-005 4.65855e-005 -8.18502e-006
